<?xml version="1.0" encoding="UTF-8" standalone="no"?>
<!-- Created with Inkscape (http://www.inkscape.org/) -->

<svg
   xmlns:dc="http://purl.org/dc/elements/1.1/"
   xmlns:cc="http://creativecommons.org/ns#"
   xmlns:rdf="http://www.w3.org/1999/02/22-rdf-syntax-ns#"
   xmlns:svg="http://www.w3.org/2000/svg"
   xmlns="http://www.w3.org/2000/svg"
   xmlns:sodipodi="http://sodipodi.sourceforge.net/DTD/sodipodi-0.dtd"
   xmlns:inkscape="http://www.inkscape.org/namespaces/inkscape"
   id="svg3289"
   height="90"
   width="90"
   version="1.1"
   inkscape:version="0.48.4 r9939"
   sodipodi:docname="clock.svg">
  <sodipodi:namedview
     pagecolor="#ffffff"
     bordercolor="#666666"
     borderopacity="1"
     objecttolerance="10"
     gridtolerance="10"
     guidetolerance="10"
     inkscape:pageopacity="0"
     inkscape:pageshadow="2"
     inkscape:window-width="1535"
     inkscape:window-height="876"
     id="namedview19"
     showgrid="false"
     inkscape:zoom="10.488889"
     inkscape:cx="26.076478"
     inkscape:cy="41.013484"
     inkscape:window-x="65"
     inkscape:window-y="24"
     inkscape:window-maximized="1"
     inkscape:current-layer="g4441" />
  <defs
     id="defs3291">
    <clipPath
       id="clipPath3844"
       clipPathUnits="userSpaceOnUse">
      <path
         id="path3846"
         style="opacity:.25;color:#000000;fill:#f0f"
         d="m449 384c-11.598 0-21 9.402-21 21s9.402 21 21 21 21-9.402 21-21-9.402-21-21-21zm0 17c2.2091 0 4 1.7909 4 4s-1.7909 4-4 4-4-1.7909-4-4 1.7909-4 4-4z" />
    </clipPath>
  </defs>
  <metadata
     id="metadata3294">
    <rdf:RDF>
      <cc:Work
         rdf:about="">
        <dc:format>image/svg+xml</dc:format>
        <dc:type
           rdf:resource="http://purl.org/dc/dcmitype/StillImage" />
        <dc:title />
      </cc:Work>
    </rdf:RDF>
  </metadata>
  <g
     id="g4441"
     transform="translate(-404,-360.11964)">
    <path
       style="color:#000000;fill:none"
       d="m 404,360 90,0 0,90 -90,0 z"
       id="rect4443"
       inkscape:connector-curvature="0" />
    <path
       id="path3009"
       style="opacity:1;color:#000000;fill:#d3d3d3;fill-opacity:0"
       d="m 30,24.5 a 6.5,6.5 0 1 1 -13,0 6.5,6.5 0 1 1 13,0 z"
       transform="matrix(3.2308,0,0,3.2308,373.08,325.85)"
       inkscape:connector-curvature="0" />
    <path
       id="path3052"
       style="color:#000000;fill:#000000;stroke:#000000;stroke-width:5.25000000000000000;stroke-linejoin:round;fill-opacity:0;stroke-opacity:1;opacity:1"
       d="m 66,45 a 21,21 0 1 1 -42,0 21,21 0 1 1 42,0 z"
       inkscape:connector-curvature="0"
       transform="matrix(1.1429,0,0,1.1429,397.57,353.57)" />
    <path
       id="path3831"
       style="color:#000000;fill:#000000;fill-opacity:1"
       d="m 45,40 c -2.761,0 -5,2.239 -5,5 0,2.761 2.239,5 5,5 2.761,0 5,-2.239 5,-5 0,-2.761 -2.239,-5 -5,-5 z m 0,3 c 1.105,0 2,0.895 2,2 0,1.105 -0.895,2 -2,2 -1.105,0 -2,-0.895 -2,-2 0,-1.105 0.895,-2 2,-2 z"
       transform="translate(404,360)"
       inkscape:connector-curvature="0" />
    <g
       id="g3835"
       style="stroke:#000000;stroke-opacity:1"
       clip-path="url(#clipPath3844)">
      <path
         id="path3825"
         style="color:#000000;fill:none;stroke:#000000;stroke-width:4;stroke-linecap:round;stroke-opacity:1"
         d="M 45,42 V 29"
         transform="translate(404,360)"
         inkscape:connector-curvature="0" />
      <path
         id="path3827"
         style="color:#000000;fill:none;stroke:#000000;stroke-width:4;stroke-linecap:round;stroke-opacity:1"
         d="m 451.12,407.12 6.8995,6.8995"
         inkscape:connector-curvature="0" />
    </g>
  </g>
</svg>
