<?xml version="1.0" encoding="UTF-8" standalone="no"?>
<svg
   xmlns:dc="http://purl.org/dc/elements/1.1/"
   xmlns:cc="http://creativecommons.org/ns#"
   xmlns:rdf="http://www.w3.org/1999/02/22-rdf-syntax-ns#"
   xmlns:svg="http://www.w3.org/2000/svg"
   xmlns="http://www.w3.org/2000/svg"
   xmlns:sodipodi="http://sodipodi.sourceforge.net/DTD/sodipodi-0.dtd"
   xmlns:inkscape="http://www.inkscape.org/namespaces/inkscape"
   viewBox="0 0 3333.3333 3333.3333"
   height="3333.3333"
   width="3333.3333"
   xml:space="preserve"
   id="svg2"
   version="1.1"
   inkscape:version="0.91 r13725"
   sodipodi:docname="yumi.svg"><sodipodi:namedview
     pagecolor="#ffffff"
     bordercolor="#666666"
     borderopacity="1"
     objecttolerance="10"
     gridtolerance="10"
     guidetolerance="10"
     inkscape:pageopacity="0"
     inkscape:pageshadow="2"
     inkscape:window-width="1863"
     inkscape:window-height="1056"
     id="namedview112"
     showgrid="false"
     inkscape:zoom="0.20025265"
     inkscape:cx="1549.1992"
     inkscape:cy="1270.1322"
     inkscape:window-x="57"
     inkscape:window-y="24"
     inkscape:window-maximized="1"
     inkscape:current-layer="svg2" /><metadata
     id="metadata8"><rdf:RDF><cc:Work
         rdf:about=""><dc:format>image/svg+xml</dc:format><dc:type
           rdf:resource="http://purl.org/dc/dcmitype/StillImage" /><dc:title /></cc:Work></rdf:RDF></metadata><defs
     id="defs6"><clipPath
       id="clipPath18"
       clipPathUnits="userSpaceOnUse"><path
         id="path16"
         d="M 0,2500 H 2500 V 0 H 0 Z" /></clipPath><clipPath
       id="clipPath30"
       clipPathUnits="userSpaceOnUse"><path
         id="path28"
         d="M 0,2500 H 2500 V 0 H 0 Z" /></clipPath><clipPath
       id="clipPath42"
       clipPathUnits="userSpaceOnUse"><path
         id="path40"
         d="M 0,2500 H 2500 V 0 H 0 Z" /></clipPath><clipPath
       id="clipPath54"
       clipPathUnits="userSpaceOnUse"><path
         id="path52"
         d="M 0,2500 H 2500 V 0 H 0 Z" /></clipPath><clipPath
       id="clipPath66"
       clipPathUnits="userSpaceOnUse"><path
         id="path64"
         d="M 0,2500 H 2500 V 0 H 0 Z" /></clipPath><clipPath
       id="clipPath78"
       clipPathUnits="userSpaceOnUse"><path
         id="path76"
         d="M 0,2500 H 2500 V 0 H 0 Z" /></clipPath><clipPath
       id="clipPath90"
       clipPathUnits="userSpaceOnUse"><path
         id="path88"
         d="M 0,2500 H 2500 V 0 H 0 Z" /></clipPath><clipPath
       id="clipPath102"
       clipPathUnits="userSpaceOnUse"><path
         id="path100"
         d="M 0,2500 H 2500 V 0 H 0 Z" /></clipPath><clipPath
       id="clipPath114"
       clipPathUnits="userSpaceOnUse"><path
         id="path112"
         d="M 0,2500 H 2500 V 0 H 0 Z" /></clipPath><clipPath
       id="clipPath126"
       clipPathUnits="userSpaceOnUse"><path
         id="path124"
         d="M 0,2500 H 2500 V 0 H 0 Z" /></clipPath><clipPath
       id="clipPath138"
       clipPathUnits="userSpaceOnUse"><path
         id="path136"
         d="M 0,2500 H 2500 V 0 H 0 Z" /></clipPath><clipPath
       id="clipPath162"
       clipPathUnits="userSpaceOnUse"><path
         id="path160"
         d="M 0,2500 H 2500 V 0 H 0 Z" /></clipPath><clipPath
       id="clipPath174"
       clipPathUnits="userSpaceOnUse"><path
         id="path172"
         d="M 0,2500 H 2500 V 0 H 0 Z" /></clipPath><clipPath
       id="clipPath186"
       clipPathUnits="userSpaceOnUse"><path
         id="path184"
         d="M 0,2500 H 2500 V 0 H 0 Z" /></clipPath><clipPath
       id="clipPath198"
       clipPathUnits="userSpaceOnUse"><path
         id="path196"
         d="M 0,2500 H 2500 V 0 H 0 Z" /></clipPath></defs><g
     id="g36"
     transform="matrix(3.7729121,0,0,-3.7729121,-3187.9136,7663.5227)"><g
       id="g38"
       clip-path="url(#clipPath42)"><g
         id="g44"
         transform="translate(1530.625,1847)"><path
           inkscape:connector-curvature="0"
           d="m 0,0 c 0,0 -49.625,28 -243.625,30 -194,-2 -243.713,-30 -243.713,-30 -107.175,-50.397 -128.563,-154.918 -130.003,-224 1.44,-69.082 22.828,-173.603 130.003,-224 0,0 49.713,-28 243.713,-30 194,2 243.625,30 243.625,30 107.175,50.397 128.526,154.918 129.94,224 C 128.526,-154.918 107.175,-50.397 0,0"
           style="fill:#f15a24;fill-opacity:1;fill-rule:nonzero;stroke:none"
           id="path46" /></g></g></g><g
     id="g48"
     transform="matrix(3.7729121,0,0,-3.7729121,-3187.9136,7663.5227)"><g
       id="g50"
       clip-path="url(#clipPath54)"><g
         id="g56"
         transform="translate(1531.625,1848)"><path
           inkscape:connector-curvature="0"
           d="m 0,0 c 0,0 -49.625,28 -243.625,30 l 0,-508 c 194,2 243.625,30 243.625,30 107.175,50.397 128.526,154.918 129.94,224 C 128.526,-154.918 107.175,-50.397 0,0"
           style="fill:#db481b;fill-opacity:1;fill-rule:nonzero;stroke:none"
           id="path58" /></g></g></g><g
     id="g60"
     transform="matrix(3.7729121,0,0,-3.7729121,-3187.9136,7663.5227)"><g
       id="g62"
       clip-path="url(#clipPath66)"><g
         id="g68"
         transform="translate(921.5,1706)"><path
           inkscape:connector-curvature="0"
           d="m 0,0 c 0,0 -24,-57 -6,-148 0,0 -49.5,4 -50,12 0,0 -31.5,49 0,123 0,0 3.5,6 56,13"
           style="fill:#f15a24;fill-opacity:1;fill-rule:nonzero;stroke:none"
           id="path70" /></g></g></g><g
     id="g72"
     transform="matrix(3.7729121,0,0,-3.7729121,-3187.9136,7663.5227)"><g
       id="g74"
       clip-path="url(#clipPath78)"><g
         id="g80"
         transform="translate(1653.5,1706)"><path
           inkscape:connector-curvature="0"
           d="m 0,0 c 0,0 24,-57 6,-148 0,0 49.5,4 50,12 0,0 31.5,49 0,123 0,0 -3.5,6 -56,13"
           style="fill:#db481b;fill-opacity:1;fill-rule:nonzero;stroke:none"
           id="path82" /></g></g></g><g
     id="g84"
     transform="matrix(3.7729121,0,0,-3.7729121,-3187.9136,7663.5227)"><g
       id="g86"
       clip-path="url(#clipPath90)"><g
         id="g92"
         transform="translate(1554.9258,1692)"><path
           inkscape:connector-curvature="0"
           d="m 0,0 c 11.785,-23.893 15.505,-48.548 15.999,-68.5 -1.075,-43.38 -17.305,-109.014 -98.767,-140.662 0,0 -37.718,-17.582 -185.175,-18.838 -147.458,1.256 -185.244,18.838 -185.244,18.838 -81.462,31.648 -97.719,97.282 -98.814,140.662 0.503,19.951 4.228,44.606 16.016,68.5 z"
           style="fill:#333333;fill-opacity:1;fill-rule:nonzero;stroke:none"
           id="path94" /></g></g></g><g
     id="g96"
     transform="matrix(3.7729121,0,0,-3.7729121,-3187.9136,7663.5227)"><g
       id="g98"
       clip-path="url(#clipPath102)"><g
         id="g104"
         transform="translate(1555.002,1556)"><path
           inkscape:connector-curvature="0"
           d="m 0,0 c 11.784,23.893 15.504,48.548 15.998,68.5 -1.074,43.38 -17.305,109.014 -98.767,140.662 0,0 -37.718,17.582 -185.175,18.838 -147.458,-1.256 -185.244,-18.838 -185.244,-18.838 -81.462,-31.648 -97.719,-97.282 -98.814,-140.662 0.503,-19.951 4.228,-44.606 16.017,-68.5 z"
           style="fill:#333333;fill-opacity:1;fill-rule:nonzero;stroke:none"
           id="path106" /></g></g></g><g
     id="g108"
     transform="matrix(3.7729121,0,0,-3.7729121,-3187.9136,7663.5227)"><g
       id="g110"
       clip-path="url(#clipPath114)"><g
         id="g116"
         transform="translate(1101.8135,1737.291)"><path
           inkscape:connector-curvature="0"
           d="M 0,0 C 0,0 37.787,16.995 185.244,18.209 332.701,16.995 370.42,0 370.42,0 c 74.382,-27.931 94.374,-83.248 98.106,-124.572 0.356,4.069 0.567,8.01 0.661,11.781 -1.075,43.38 -17.305,109.014 -98.767,140.662 0,0 -37.719,17.582 -185.176,18.838 C 37.787,45.453 0,27.871 0,27.871 -81.462,-3.777 -97.719,-69.411 -98.813,-112.791 c 0.095,-3.771 0.308,-7.712 0.665,-11.781 C -94.397,-83.248 -74.382,-27.931 0,0"
           style="fill:#1a1a1a;fill-opacity:1;fill-rule:nonzero;stroke:none"
           id="path118" /></g></g></g><g
     id="g120"
     transform="matrix(3.7729121,0,0,-3.7729121,-3187.9136,7663.5227)"><g
       id="g122"
       clip-path="url(#clipPath126)"><g
         id="g128"
         transform="translate(1472.2334,1765.1616)"><path
           inkscape:connector-curvature="0"
           d="m 0,0 c 0,0 -37.719,17.583 -185.176,18.838 -0.019,0 -0.038,0 -0.057,0 l 0,-319 0.057,0 c 147.457,1 185.176,18.839 185.176,18.839 81.462,31.647 97.692,97.281 98.767,140.661 C 97.692,-97.282 81.462,-31.647 0,0"
           style="fill:#1a1a1a;fill-opacity:1;fill-rule:nonzero;stroke:none"
           id="path130" /></g></g></g><g
     id="g132"
     transform="matrix(3.7729121,0,0,-3.7729121,-3187.9136,7663.5227)"><g
       transform="translate(1187.3335,1626)"
       id="g140"><path
         id="path142"
         style="fill:#f2f2f2;fill-opacity:1;fill-rule:nonzero;stroke:none"
         d="m 0,0 c 0,-25.773 -20.894,-46.667 -46.667,-46.667 -25.773,0 -46.666,20.894 -46.666,46.667 0,25.773 20.893,46.667 46.666,46.667 C -20.894,46.667 0,25.773 0,0"
         inkscape:connector-curvature="0" /></g><g
       transform="translate(1482.333,1626)"
       id="g144"><path
         id="path146"
         style="fill:#f2f2f2;fill-opacity:1;fill-rule:nonzero;stroke:none"
         d="m 0,0 c 0,-25.773 -20.893,-46.667 -46.666,-46.667 -25.773,0 -46.667,20.894 -46.667,46.667 0,25.773 20.894,46.667 46.667,46.667 C -20.893,46.667 0,25.773 0,0"
         inkscape:connector-curvature="0" /></g><g
       transform="translate(1229.8413,1570)"
       id="g148"><path
         id="path150"
         style="fill:#f2f2f2;fill-opacity:1;fill-rule:nonzero;stroke:none"
         d="m 0,0 c 7.004,-29.402 30.232,-51 57.826,-51 27.593,0 50.821,21.598 57.825,51 z"
         inkscape:connector-curvature="0" /></g></g></svg>